<svg width="290" height="77" viewBox="0 0 290 77" fill="none" xmlns="http://www.w3.org/2000/svg">
<path d="M20.0164 0.799998V26H17.4244V15.56C14.6884 16.736 12.0364 17.324 9.46838 17.324C6.51638 17.324 4.21238 16.604 2.55638 15.164C0.924375 13.724 0.108375 11.708 0.108375 9.116V0.799998H2.73637V8.828C2.73637 10.772 3.34838 12.284 4.57238 13.364C5.79638 14.444 7.51238 14.984 9.72038 14.984C12.2404 14.984 14.8084 14.384 17.4244 13.184V0.799998H20.0164ZM34.4684 6.92C36.9404 6.92 38.8364 7.544 40.1564 8.792C41.4764 10.016 42.1364 11.84 42.1364 14.264V26H39.6884V23.048C39.1124 24.032 38.2604 24.8 37.1324 25.352C36.0284 25.904 34.7084 26.18 33.1724 26.18C31.0604 26.18 29.3804 25.676 28.1324 24.668C26.8844 23.66 26.2604 22.328 26.2604 20.672C26.2604 19.064 26.8364 17.768 27.9884 16.784C29.1644 15.8 31.0244 15.308 33.5684 15.308H39.5804V14.156C39.5804 12.524 39.1244 11.288 38.2124 10.448C37.3004 9.584 35.9684 9.152 34.2164 9.152C33.0164 9.152 31.8644 9.356 30.7604 9.764C29.6564 10.148 28.7084 10.688 27.9164 11.384L26.7644 9.476C27.7244 8.66 28.8764 8.036 30.2204 7.604C31.5644 7.148 32.9804 6.92 34.4684 6.92ZM33.5684 24.164C35.0084 24.164 36.2444 23.84 37.2764 23.192C38.3084 22.52 39.0764 21.56 39.5804 20.312V17.216H33.6404C30.4004 17.216 28.7804 18.344 28.7804 20.6C28.7804 21.704 29.2004 22.58 30.0404 23.228C30.8804 23.852 32.0564 24.164 33.5684 24.164ZM65.9327 7.064V26H63.3767V9.332H51.4967V26H48.9407V7.064H65.9327ZM88.6785 7.064V26H86.1225V9.332H77.0505L76.7985 14.012C76.6065 17.948 76.1505 20.972 75.4305 23.084C74.7105 25.196 73.4265 26.252 71.5785 26.252C71.0745 26.252 70.4625 26.156 69.7425 25.964L69.9225 23.768C70.3545 23.864 70.6545 23.912 70.8225 23.912C71.8065 23.912 72.5505 23.456 73.0545 22.544C73.5585 21.632 73.8945 20.504 74.0625 19.16C74.2305 17.816 74.3745 16.04 74.4945 13.832L74.8185 7.064H88.6785ZM103.901 13.76C106.277 13.784 108.089 14.312 109.337 15.344C110.585 16.376 111.209 17.864 111.209 19.808C111.209 21.824 110.537 23.372 109.193 24.452C107.849 25.532 105.929 26.06 103.433 26.036L95.9446 26V7.064H98.5006V13.688L103.901 13.76ZM114.377 7.064H116.933V26H114.377V7.064ZM103.289 24.092C105.041 24.116 106.361 23.768 107.249 23.048C108.161 22.304 108.617 21.224 108.617 19.808C108.617 18.416 108.173 17.384 107.285 16.712C106.397 16.04 105.065 15.692 103.289 15.668L98.5006 15.596V24.02L103.289 24.092ZM137.602 9.332H126.766V26H124.21V7.064H137.602V9.332ZM141.296 7.064H143.852V22.112L156.488 7.064H158.756V26H156.2V10.952L143.6 26H141.296V7.064ZM166.081 7.064H168.637V15.452H180.553V7.064H183.109V26H180.553V17.648H168.637V26H166.081V7.064ZM200.408 0.799998H203.036V21.68L219.164 0.799998H221.576V26H218.948V5.156L202.82 26H200.408V0.799998ZM241.528 16.208C244.096 16.808 245.38 18.356 245.38 20.852C245.38 22.508 244.768 23.78 243.544 24.668C242.32 25.556 240.496 26 238.072 26H229.468V7.064H237.82C239.98 7.064 241.672 7.484 242.896 8.324C244.12 9.164 244.732 10.364 244.732 11.924C244.732 12.956 244.444 13.844 243.868 14.588C243.316 15.308 242.536 15.848 241.528 16.208ZM231.952 15.488H237.64C239.104 15.488 240.22 15.212 240.988 14.66C241.78 14.108 242.176 13.304 242.176 12.248C242.176 11.192 241.78 10.4 240.988 9.872C240.22 9.344 239.104 9.08 237.64 9.08H231.952V15.488ZM237.964 23.984C239.596 23.984 240.82 23.72 241.636 23.192C242.452 22.664 242.86 21.836 242.86 20.708C242.86 19.58 242.488 18.752 241.744 18.224C241 17.672 239.824 17.396 238.216 17.396H231.952V23.984H237.964ZM257.886 6.92C260.358 6.92 262.254 7.544 263.574 8.792C264.894 10.016 265.554 11.84 265.554 14.264V26H263.106V23.048C262.53 24.032 261.678 24.8 260.55 25.352C259.446 25.904 258.126 26.18 256.59 26.18C254.478 26.18 252.798 25.676 251.55 24.668C250.302 23.66 249.678 22.328 249.678 20.672C249.678 19.064 250.254 17.768 251.406 16.784C252.582 15.8 254.442 15.308 256.986 15.308H262.998V14.156C262.998 12.524 262.542 11.288 261.63 10.448C260.718 9.584 259.386 9.152 257.634 9.152C256.434 9.152 255.282 9.356 254.178 9.764C253.074 10.148 252.126 10.688 251.334 11.384L250.182 9.476C251.142 8.66 252.294 8.036 253.638 7.604C254.982 7.148 256.398 6.92 257.886 6.92ZM256.986 24.164C258.426 24.164 259.662 23.84 260.694 23.192C261.726 22.52 262.494 21.56 262.998 20.312V17.216H257.058C253.818 17.216 252.198 18.344 252.198 20.6C252.198 21.704 252.618 22.58 253.458 23.228C254.298 23.852 255.474 24.164 256.986 24.164ZM272.359 7.064H274.915V15.452H286.831V7.064H289.387V26H286.831V17.648H274.915V26H272.359V7.064ZM60.3578 70.216C57.8618 70.216 55.6058 69.664 53.5898 68.56C51.5978 67.456 50.0258 65.932 48.8738 63.988C47.7458 62.02 47.1818 59.824 47.1818 57.4C47.1818 54.976 47.7458 52.792 48.8738 50.848C50.0258 48.88 51.6098 47.344 53.6258 46.24C55.6418 45.136 57.8978 44.584 60.3938 44.584C62.2658 44.584 63.9938 44.896 65.5778 45.52C67.1618 46.144 68.5058 47.056 69.6098 48.256L67.9178 49.948C65.9498 47.956 63.4658 46.96 60.4658 46.96C58.4738 46.96 56.6618 47.416 55.0298 48.328C53.3978 49.24 52.1138 50.488 51.1778 52.072C50.2658 53.656 49.8098 55.432 49.8098 57.4C49.8098 59.368 50.2658 61.144 51.1778 62.728C52.1138 64.312 53.3978 65.56 55.0298 66.472C56.6618 67.384 58.4738 67.84 60.4658 67.84C63.4898 67.84 65.9738 66.832 67.9178 64.816L69.6098 66.508C68.5058 67.708 67.1498 68.632 65.5418 69.28C63.9578 69.904 62.2298 70.216 60.3578 70.216ZM90.2155 61.324H74.3755C74.5195 63.292 75.2755 64.888 76.6435 66.112C78.0115 67.312 79.7395 67.912 81.8275 67.912C83.0035 67.912 84.0835 67.708 85.0675 67.3C86.0515 66.868 86.9035 66.244 87.6235 65.428L89.0635 67.084C88.2235 68.092 87.1675 68.86 85.8955 69.388C84.6475 69.916 83.2675 70.18 81.7555 70.18C79.8115 70.18 78.0835 69.772 76.5715 68.956C75.0835 68.116 73.9195 66.964 73.0795 65.5C72.2395 64.036 71.8195 62.38 71.8195 60.532C71.8195 58.684 72.2155 57.028 73.0075 55.564C73.8235 54.1 74.9275 52.96 76.3195 52.144C77.7355 51.328 79.3195 50.92 81.0715 50.92C82.8235 50.92 84.3955 51.328 85.7875 52.144C87.1795 52.96 88.2715 54.1 89.0635 55.564C89.8555 57.004 90.2515 58.66 90.2515 60.532L90.2155 61.324ZM81.0715 53.116C79.2475 53.116 77.7115 53.704 76.4635 54.88C75.2395 56.032 74.5435 57.544 74.3755 59.416H87.8035C87.6355 57.544 86.9275 56.032 85.6795 54.88C84.4555 53.704 82.9195 53.116 81.0715 53.116ZM105.665 50.92C107.441 50.92 109.049 51.328 110.489 52.144C111.929 52.936 113.057 54.064 113.873 55.528C114.689 56.992 115.097 58.66 115.097 60.532C115.097 62.428 114.689 64.108 113.873 65.572C113.057 67.036 111.929 68.176 110.489 68.992C109.073 69.784 107.465 70.18 105.665 70.18C104.129 70.18 102.737 69.868 101.489 69.244C100.265 68.596 99.2574 67.66 98.4654 66.436V76.984H95.9094V51.064H98.3574V54.808C99.1254 53.56 100.133 52.6 101.381 51.928C102.653 51.256 104.081 50.92 105.665 50.92ZM105.485 67.912C106.805 67.912 108.005 67.612 109.085 67.012C110.165 66.388 111.005 65.512 111.605 64.384C112.229 63.256 112.541 61.972 112.541 60.532C112.541 59.092 112.229 57.82 111.605 56.716C111.005 55.588 110.165 54.712 109.085 54.088C108.005 53.464 106.805 53.152 105.485 53.152C104.141 53.152 102.929 53.464 101.849 54.088C100.793 54.712 99.9534 55.588 99.3294 56.716C98.7294 57.82 98.4294 59.092 98.4294 60.532C98.4294 61.972 98.7294 63.256 99.3294 64.384C99.9534 65.512 100.793 66.388 101.849 67.012C102.929 67.612 104.141 67.912 105.485 67.912ZM133.981 53.332H123.145V70H120.589V51.064H133.981V53.332ZM153.356 61.324H137.516C137.66 63.292 138.416 64.888 139.784 66.112C141.152 67.312 142.88 67.912 144.968 67.912C146.144 67.912 147.224 67.708 148.208 67.3C149.192 66.868 150.044 66.244 150.764 65.428L152.204 67.084C151.364 68.092 150.308 68.86 149.036 69.388C147.788 69.916 146.408 70.18 144.896 70.18C142.952 70.18 141.224 69.772 139.712 68.956C138.224 68.116 137.06 66.964 136.22 65.5C135.38 64.036 134.96 62.38 134.96 60.532C134.96 58.684 135.356 57.028 136.148 55.564C136.964 54.1 138.068 52.96 139.46 52.144C140.876 51.328 142.46 50.92 144.212 50.92C145.964 50.92 147.536 51.328 148.928 52.144C150.32 52.96 151.412 54.1 152.204 55.564C152.996 57.004 153.392 58.66 153.392 60.532L153.356 61.324ZM144.212 53.116C142.388 53.116 140.852 53.704 139.604 54.88C138.38 56.032 137.684 57.544 137.516 59.416H150.944C150.776 57.544 150.068 56.032 148.82 54.88C147.596 53.704 146.06 53.116 144.212 53.116ZM175.61 61.324H159.77C159.914 63.292 160.67 64.888 162.038 66.112C163.406 67.312 165.134 67.912 167.222 67.912C168.398 67.912 169.478 67.708 170.462 67.3C171.446 66.868 172.298 66.244 173.018 65.428L174.458 67.084C173.618 68.092 172.562 68.86 171.29 69.388C170.042 69.916 168.662 70.18 167.15 70.18C165.206 70.18 163.478 69.772 161.966 68.956C160.478 68.116 159.314 66.964 158.474 65.5C157.634 64.036 157.214 62.38 157.214 60.532C157.214 58.684 157.61 57.028 158.402 55.564C159.218 54.1 160.322 52.96 161.714 52.144C163.13 51.328 164.714 50.92 166.466 50.92C168.218 50.92 169.79 51.328 171.182 52.144C172.574 52.96 173.666 54.1 174.458 55.564C175.25 57.004 175.646 58.66 175.646 60.532L175.61 61.324ZM166.466 53.116C164.642 53.116 163.106 53.704 161.858 54.88C160.634 56.032 159.938 57.544 159.77 59.416H173.198C173.03 57.544 172.322 56.032 171.074 54.88C169.85 53.704 168.314 53.116 166.466 53.116ZM193.364 60.208C195.932 60.808 197.216 62.356 197.216 64.852C197.216 66.508 196.604 67.78 195.38 68.668C194.156 69.556 192.332 70 189.908 70H181.304V51.064H189.656C191.816 51.064 193.508 51.484 194.732 52.324C195.956 53.164 196.568 54.364 196.568 55.924C196.568 56.956 196.28 57.844 195.704 58.588C195.152 59.308 194.372 59.848 193.364 60.208ZM183.788 59.488H189.476C190.94 59.488 192.056 59.212 192.824 58.66C193.616 58.108 194.012 57.304 194.012 56.248C194.012 55.192 193.616 54.4 192.824 53.872C192.056 53.344 190.94 53.08 189.476 53.08H183.788V59.488ZM189.8 67.984C191.432 67.984 192.656 67.72 193.472 67.192C194.288 66.664 194.696 65.836 194.696 64.708C194.696 63.58 194.324 62.752 193.58 62.224C192.836 61.672 191.66 61.396 190.052 61.396H183.788V67.984H189.8ZM203.206 51.064H205.762V66.112L218.398 51.064H220.666V70H218.11V54.952L205.51 70H203.206V51.064ZM242.283 51.064V70H239.727V62.116C237.543 63.076 235.395 63.556 233.283 63.556C231.003 63.556 229.227 63.04 227.955 62.008C226.683 60.952 226.047 59.38 226.047 57.292V51.064H228.603V57.148C228.603 58.564 229.059 59.644 229.971 60.388C230.883 61.108 232.143 61.468 233.751 61.468C235.527 61.468 237.519 61 239.727 60.064V51.064H242.283Z" fill="black"/>
</svg>
